<?xml version="1.0" standalone="no"?>
<!DOCTYPE svg PUBLIC "-//W3C//DTD SVG 20010904//EN"
 "http://www.w3.org/TR/2001/REC-SVG-20010904/DTD/svg10.dtd">
<svg version="1.0" xmlns="http://www.w3.org/2000/svg"
 width="920.000000pt" height="521.000000pt" viewBox="0 0 920.000000 521.000000"
 preserveAspectRatio="xMidYMid meet">

<g transform="translate(300.000000,650.000000) scale(0.100000,-0.100000)"
fill="#FFFFFF" stroke="none" fill-opacity="0.15">
<path d="M4400 4233 c-364 -27 -704 -159 -934 -362 -131 -116 -223 -235 -300
-389 -122 -243 -152 -478 -95 -754 27 -136 68 -237 194 -485 144 -283 188
-445 187 -693 0 -172 -42 -366 -106 -488 -13 -25 -12 -26 46 -54 33 -15 63
-28 68 -28 4 0 24 43 44 96 122 319 123 616 1 989 -14 44 -66 155 -115 246
-141 262 -181 375 -201 576 -25 237 40 467 191 681 107 151 294 305 471 386
437 199 1021 189 1374 -22 278 -166 484 -462 536 -766 12 -74 7 -215 -11 -276
-15 -51 -12 -135 6 -178 20 -50 92 -165 180 -289 95 -133 99 -140 83 -159 -7
-9 -39 -29 -72 -46 -106 -53 -128 -97 -92 -185 8 -19 15 -37 15 -39 0 -2 -67
-4 -150 -4 l-150 0 0 -71 0 -70 196 3 196 3 28 32 c41 45 48 92 21 143 -12 22
-21 42 -21 45 0 2 25 18 54 35 144 82 158 184 48 338 -87 121 -186 274 -201
311 -12 29 -12 47 2 136 20 120 21 199 6 298 -13 82 -67 243 -111 331 -122
244 -344 467 -573 576 -227 108 -517 156 -815 133z"/>
<path d="M4457 3950 c-127 -32 -206 -124 -215 -251 -9 -123 47 -222 153 -275
l55 -26 0 -984 0 -984 70 0 70 0 0 989 0 989 32 7 c18 4 54 30 89 64 47 46 60
67 74 115 50 173 -63 342 -240 360 -27 3 -67 1 -88 -4z m113 -146 c140 -56
102 -264 -49 -264 -54 0 -97 22 -121 63 -46 76 -7 182 76 207 42 12 49 12 94
-6z"/>
<path d="M3763 3599 c-228 -44 -305 -327 -132 -483 81 -72 194 -92 293 -51
l33 14 106 -107 107 -107 0 -193 0 -192 70 0 70 0 0 222 0 223 -126 126 -127
127 19 48 c77 201 -102 414 -313 373z m142 -170 c109 -96 17 -277 -122 -240
-111 30 -143 165 -58 240 31 27 44 31 90 31 46 0 59 -4 90 -31z"/>
<path d="M5175 3600 c-142 -23 -243 -151 -232 -295 2 -34 11 -75 20 -91 l16
-31 -125 -124 -124 -124 0 -227 0 -228 70 0 70 0 0 198 0 197 103 103 103 103
39 -17 c24 -10 67 -17 106 -18 209 -1 342 214 248 402 -57 115 -167 172 -294
152z m115 -155 c15 -8 38 -30 49 -48 70 -113 -45 -251 -168 -201 -141 56 -105
263 47 264 24 0 56 -7 72 -15z"/>
<path d="M3644 2884 c-104 -37 -178 -148 -178 -263 1 -73 18 -123 63 -180 68
-86 204 -123 308 -83 l51 19 106 -106 106 -106 0 -583 0 -583 68 3 67 3 3 610
2 610 -126 126 -126 126 17 39 c10 23 17 66 18 106 1 195 -192 328 -379 262z
m173 -144 c90 -54 86 -191 -7 -242 -104 -57 -232 44 -201 159 24 89 130 131
208 83z"/>
<path d="M5210 2891 c-126 -41 -210 -168 -197 -297 3 -28 13 -66 22 -84 l17
-33 -161 -161 -161 -161 0 -83 0 -82 70 0 70 0 0 58 0 57 139 139 138 138 33
-17 c130 -67 316 10 370 153 26 68 24 166 -5 222 -24 49 -82 108 -130 132 -43
23 -161 34 -205 19z m146 -147 c96 -46 97 -186 2 -244 -100 -61 -233 40 -204
154 8 31 53 85 80 96 34 14 85 11 122 -6z"/>
<path d="M4798 1778 c-34 -11 -58 -26 -58 -34 0 -28 92 -263 123 -316 29 -47
72 -81 128 -100 5 -2 -6 -32 -25 -68 -32 -59 -102 -249 -94 -254 2 -1 33 -9
69 -17 l67 -16 16 60 c21 73 80 198 111 231 l22 24 89 -20 c56 -12 134 -20
209 -21 106 -2 126 1 170 21 65 30 93 56 121 117 17 35 24 68 24 110 0 53 4
66 35 109 37 53 55 101 55 153 0 31 -1 32 -37 27 -97 -13 -103 -15 -103 -33 0
-10 -12 -36 -27 -57 -46 -68 -63 -116 -63 -180 0 -108 -54 -142 -204 -130 -85
7 -280 46 -373 74 -53 16 -59 21 -83 68 -14 28 -43 101 -65 163 -21 61 -41
111 -44 110 -3 0 -32 -10 -63 -21z"/>
</g>
</svg>